<svg width="51" height="50" viewBox="0 0 51 50" fill="none" xmlns="http://www.w3.org/2000/svg">
<circle cx="25.5" cy="25" r="25" fill="#FF0000"/>
<rect x="0.5" width="50" height="50" rx="15" fill="url(#paint0_linear_13519_58131)"/>
<path d="M26.0016 7C21.2489 7 20.6524 7.02078 18.7857 7.10573C16.9227 7.19104 15.651 7.48599 14.5383 7.91876C13.3873 8.36574 12.4109 8.96367 11.4382 9.93675C10.4648 10.9095 9.86684 11.8858 9.41839 13.0365C8.98454 14.1496 8.68922 15.4216 8.60537 17.2839C8.52188 19.1506 8.5 19.7474 8.5 24.5002C8.5 29.2529 8.52115 29.8476 8.60573 31.7143C8.69141 33.5773 8.98636 34.849 9.41876 35.9617C9.86611 37.1127 10.464 38.0891 11.4371 39.0618C12.4095 40.0352 13.3858 40.6346 14.5361 41.0816C15.6496 41.5144 16.9216 41.8093 18.7843 41.8946C20.651 41.9796 21.2471 42.0004 25.9995 42.0004C30.7526 42.0004 31.3472 41.9796 33.2139 41.8946C35.0769 41.8093 36.3501 41.5144 37.4635 41.0816C38.6142 40.6346 39.5891 40.0352 40.5614 39.0618C41.5349 38.0891 42.1328 37.1127 42.5812 35.9621C43.0115 34.849 43.3068 33.5769 43.3943 31.7146C43.4781 29.8479 43.5 29.2529 43.5 24.5002C43.5 19.7474 43.4781 19.151 43.3943 17.2843C43.3068 15.4212 43.0115 14.1496 42.5812 13.0368C42.1328 11.8858 41.5349 10.9095 40.5614 9.93675C39.588 8.9633 38.6145 8.36538 37.4624 7.91876C36.3468 7.48599 35.0744 7.19104 33.2114 7.10573C31.3447 7.02078 30.7504 7 25.9962 7H26.0016ZM24.4317 10.1537C24.8977 10.1529 25.4176 10.1537 26.0016 10.1537C30.6742 10.1537 31.228 10.1704 33.0732 10.2543C34.7794 10.3323 35.7055 10.6174 36.3224 10.857C37.139 11.1742 37.7213 11.5533 38.3334 12.1658C38.9459 12.7783 39.3251 13.3617 39.643 14.1784C39.8826 14.7945 40.168 15.7206 40.2457 17.4268C40.3295 19.2716 40.3478 19.8258 40.3478 24.4962C40.3478 29.1665 40.3295 29.7207 40.2457 31.5655C40.1677 33.2718 39.8826 34.1978 39.643 34.814C39.3258 35.6307 38.9459 36.2122 38.3334 36.8243C37.7209 37.4368 37.1394 37.816 36.3224 38.1332C35.7062 38.3738 34.7794 38.6582 33.0732 38.7362C31.2284 38.8201 30.6742 38.8383 26.0016 38.8383C21.3287 38.8383 20.7749 38.8201 18.9301 38.7362C17.2238 38.6575 16.2978 38.3724 15.6805 38.1328C14.8639 37.8156 14.2805 37.4365 13.668 36.824C13.0555 36.2114 12.6763 35.6296 12.3584 34.8125C12.1189 34.1964 11.8334 33.2703 11.7558 31.5641C11.6719 29.7192 11.6551 29.1651 11.6551 24.4918C11.6551 19.8185 11.6719 19.2673 11.7558 17.4225C11.8338 15.7162 12.1189 14.7901 12.3584 14.1733C12.6756 13.3566 13.0555 12.7732 13.668 12.1607C14.2805 11.5482 14.8639 11.1691 15.6805 10.8511C16.2974 10.6105 17.2238 10.3261 18.9301 10.2477C20.5445 10.1748 21.1701 10.1529 24.4317 10.1493V10.1537ZM35.3431 13.0594C34.1837 13.0594 33.2431 13.999 33.2431 15.1587C33.2431 16.3181 34.1837 17.2588 35.3431 17.2588C36.5025 17.2588 37.4431 16.3181 37.4431 15.1587C37.4431 13.9993 36.5025 13.0587 35.3431 13.0587V13.0594ZM26.0016 15.5131C21.0385 15.5131 17.0146 19.5371 17.0146 24.5002C17.0146 29.4633 21.0385 33.4854 26.0016 33.4854C30.9648 33.4854 34.9873 29.4633 34.9873 24.5002C34.9873 19.5371 30.9644 15.5131 26.0013 15.5131H26.0016ZM26.0016 18.6668C29.2231 18.6668 31.835 21.2783 31.835 24.5002C31.835 27.7217 29.2231 30.3336 26.0016 30.3336C22.7798 30.3336 20.1682 27.7217 20.1682 24.5002C20.1682 21.2783 22.7798 18.6668 26.0016 18.6668Z" fill="white"/>
<defs>
<linearGradient id="paint0_linear_13519_58131" x1="9.875" y1="-2.03722e-07" x2="36.4371" y2="49.9997" gradientUnits="userSpaceOnUse">
<stop stop-color="#405DE6"/>
<stop offset="0.151042" stop-color="#5B51D8"/>
<stop offset="0.322917" stop-color="#833AB4"/>
<stop offset="0.494792" stop-color="#C13584"/>
<stop offset="0.645833" stop-color="#E1306C"/>
<stop offset="0.802083" stop-color="#F77737"/>
<stop offset="1" stop-color="#FFDC80"/>
</linearGradient>
</defs>
</svg>
