<svg width="51" height="50" viewBox="0 0 51 50" fill="none" xmlns="http://www.w3.org/2000/svg">
<path d="M0.5 3.58168C0.5 1.6041 2.14379 0 4.17161 0H46.8284C48.8561 0 50.5 1.60411 50.5 3.58169V46.4183C50.5 48.3966 48.8561 50 46.8284 50L4.17161 50C2.14379 50 0.5 48.3966 0.5 46.4183V3.58168ZM15.9481 41.8552V19.2774H8.44362V41.8552H15.9481ZM12.1958 16.1948C14.8128 16.1948 16.4416 14.461 16.4416 12.2944C16.3928 10.079 14.8128 8.39335 12.2455 8.39335C9.67841 8.39335 8 10.079 8 12.2944C8 14.461 9.62849 16.1948 12.1469 16.1948H12.1958ZM27.5356 41.8552V29.2468C27.5356 28.572 27.5844 27.8979 27.7825 27.4155C28.325 26.0673 29.5598 24.671 31.633 24.671C34.3485 24.671 35.4347 26.7414 35.4347 29.7766V41.8552H42.9385V28.9094C42.9385 21.9745 39.2362 18.7476 34.2989 18.7476C30.318 18.7476 28.5331 20.9355 27.5358 22.474V22.5517H27.4857C27.5022 22.526 27.5189 22.5001 27.5358 22.474V19.2774H20.0315C20.1299 21.3959 20.0315 41.8552 20.0315 41.8552H27.5356Z" fill="#0A66C2"/>
</svg>
