<svg width="51" height="50" viewBox="0 0 51 50" fill="none" xmlns="http://www.w3.org/2000/svg">
<circle cx="25.5" cy="25" r="25" fill="#1DA1F2"/>
<path d="M20.6673 36.375C30.4784 36.375 35.8469 28.2452 35.8469 21.207C35.8469 20.9783 35.8469 20.7496 35.8365 20.5209C36.877 19.7723 37.7821 18.8263 38.5 17.7555C37.5428 18.1817 36.5128 18.4624 35.4308 18.5976C36.5336 17.9426 37.3764 16.8926 37.7821 15.6451C36.7521 16.2584 35.6076 16.6951 34.3904 16.9342C33.4124 15.8946 32.0286 15.25 30.4992 15.25C27.5548 15.25 25.1619 17.6411 25.1619 20.5832C25.1619 20.9991 25.2139 21.4045 25.2971 21.7996C20.8649 21.5813 16.9322 19.45 14.2999 16.2272C13.8421 17.0173 13.582 17.9322 13.582 18.9094C13.582 20.76 14.5288 22.3922 15.9542 23.3486C15.0802 23.3174 14.2583 23.0783 13.5404 22.6833C13.5404 22.704 13.5404 22.7248 13.5404 22.756C13.5404 25.3343 15.382 27.4967 17.8165 27.9853C17.3691 28.1101 16.901 28.1724 16.412 28.1724C16.0686 28.1724 15.7357 28.1412 15.4132 28.0789C16.0894 30.1997 18.0662 31.7383 20.3968 31.7799C18.5656 33.2146 16.2663 34.0671 13.7693 34.0671C13.3427 34.0671 12.9162 34.0463 12.5 33.9943C14.8513 35.4913 17.6605 36.375 20.6673 36.375Z" fill="white"/>
</svg>
