<svg width="50" height="50" viewBox="0 0 50 50" fill="none" xmlns="http://www.w3.org/2000/svg">
<rect width="50" height="50" rx="15" fill="url(#paint0_linear_13519_58128)"/>
<path d="M35.6524 14.2167C32.9446 11.4951 29.3342 10 25.4896 10C17.573 10 11.124 16.449 11.1171 24.3656C11.1171 26.9012 11.7786 29.3678 13.0325 31.5519L11 39L18.6203 37.0019C20.7218 38.1456 23.085 38.752 25.4896 38.752H25.4965C33.4131 38.752 39.8621 32.3029 39.869 24.3794C39.8621 20.5417 38.367 16.9313 35.6524 14.2167ZM25.4896 36.3198C23.34 36.3198 21.2385 35.741 19.4058 34.6524L18.9717 34.3906L14.4519 35.5757L15.6576 31.1661L15.3751 30.7113C14.1763 28.8097 13.5493 26.6118 13.5493 24.3588C13.5493 17.7857 18.9097 12.4253 25.4965 12.4253C28.6866 12.4253 31.6837 13.6724 33.9436 15.9254C36.1967 18.1853 37.4369 21.1825 37.4369 24.3725C37.43 30.9663 32.0696 36.3198 25.4896 36.3198ZM32.042 27.3766C31.6837 27.1974 29.9199 26.3293 29.5892 26.2053C29.2585 26.0881 29.0173 26.0261 28.7831 26.3844C28.5419 26.7427 27.8529 27.5557 27.6462 27.79C27.4395 28.0311 27.2259 28.0587 26.8676 27.8795C26.5094 27.7004 25.3518 27.3215 23.9807 26.095C22.9128 25.1442 22.1962 23.966 21.9826 23.6077C21.7759 23.2495 21.962 23.0565 22.1411 22.8774C22.2996 22.7189 22.4994 22.4571 22.6785 22.2504C22.8577 22.0437 22.9197 21.8921 23.0368 21.651C23.1539 21.4098 23.0988 21.2031 23.0092 21.024C22.9197 20.8449 22.2031 19.0741 21.9 18.3576C21.6106 17.6548 21.3143 17.7512 21.0938 17.7444C20.8871 17.7306 20.646 17.7306 20.4048 17.7306C20.1637 17.7306 19.7778 17.8201 19.4471 18.1784C19.1164 18.5367 18.1931 19.4048 18.1931 21.1756C18.1931 22.9463 19.4816 24.6481 19.6607 24.8893C19.8399 25.1304 22.1893 28.7546 25.7928 30.3117C26.6472 30.6838 27.3155 30.9043 27.8391 31.0696C28.7004 31.3452 29.4789 31.3039 30.099 31.2143C30.788 31.111 32.2212 30.3462 32.5243 29.5056C32.8206 28.665 32.8206 27.9484 32.731 27.7969C32.6414 27.6453 32.4003 27.5557 32.042 27.3766Z" fill="white"/>
<defs>
<linearGradient id="paint0_linear_13519_58128" x1="50" y1="50" x2="50" y2="0" gradientUnits="userSpaceOnUse">
<stop stop-color="#20B038"/>
<stop offset="1" stop-color="#60D66A"/>
</linearGradient>
</defs>
</svg>
