<svg width="50" height="50" viewBox="0 0 50 50" fill="none" xmlns="http://www.w3.org/2000/svg">
<circle cx="25" cy="25" r="25" fill="#FF0000"/>
<path d="M25.0828 15.2461C25.092 15.2461 25.102 15.2461 25.1127 15.2462L25.2277 15.2465C26.5631 15.2514 33.3314 15.3005 35.1563 15.7911C36.275 16.0911 37.1559 16.9754 37.4549 18.0978C37.6195 18.7145 37.7342 19.5342 37.8142 20.3771L37.8297 20.546C37.8423 20.6869 37.8539 20.8281 37.8646 20.9687L37.8771 21.1373C37.984 22.6227 37.9964 24.0127 37.9979 24.3168L37.998 24.3579C37.998 24.3612 37.998 24.3667 37.998 24.3667V24.3897C37.998 24.3897 37.998 24.3952 37.998 24.3986L37.9979 24.4396C37.9964 24.7552 37.983 26.2403 37.8646 27.7878L37.8513 27.9568L37.8371 28.126C37.7566 29.0564 37.6359 29.9804 37.4549 30.6586C37.1559 31.7811 36.275 32.6655 35.1563 32.9654C33.2706 33.4725 26.1064 33.508 25.1127 33.5105L25.0361 33.5107C25.0299 33.5107 25.0243 33.5107 25.0196 33.5107L24.9884 33.5107C24.9884 33.5107 24.9812 33.5107 24.9765 33.5107L24.8834 33.5105C24.3812 33.5093 22.3031 33.4996 20.1267 33.4248L19.8485 33.4149C19.8021 33.4132 19.7556 33.4115 19.7092 33.4097L19.4306 33.3987L19.1527 33.3869C17.3497 33.3078 15.6307 33.1781 14.84 32.9654C13.7213 32.6655 12.8404 31.7811 12.5414 30.6586C12.3602 29.9804 12.2395 29.0564 12.159 28.126L12.1448 27.9568L12.1314 27.7878C12.0174 26.2966 12.0008 24.8633 11.9984 24.4786L11.9981 24.4236C11.9981 24.4186 11.9981 24.4141 11.998 24.4099V24.3466C11.9981 24.3424 11.9981 24.3378 11.9981 24.3329L11.9984 24.2778C12.0006 23.9294 12.0144 22.721 12.1017 21.3884L12.113 21.2212C12.1149 21.1933 12.1169 21.1653 12.1189 21.1373L12.1314 20.9687C12.1422 20.8281 12.1538 20.6869 12.1664 20.546L12.182 20.3771C12.2619 19.5342 12.3767 18.7145 12.5414 18.0978C12.8404 16.9754 13.7213 16.0911 14.84 15.7911C15.6307 15.5785 17.3497 15.4488 19.1527 15.3697L19.4306 15.3579L19.7092 15.3469C19.7556 15.3452 19.8021 15.3434 19.8485 15.3417L20.1267 15.3318C22.1641 15.2619 24.1155 15.2489 24.7683 15.2465L24.8834 15.2462C24.8941 15.2461 24.904 15.2461 24.9133 15.2461H25.0828ZM22.3981 20.4643V28.2922L29.1528 24.3784L22.3981 20.4643Z" fill="white"/>
</svg>
