<?xml version="1.0" standalone="no"?>
<!DOCTYPE svg PUBLIC "-//W3C//DTD SVG 20010904//EN"
 "http://www.w3.org/TR/2001/REC-SVG-20010904/DTD/svg10.dtd">
<svg version="1.0" xmlns="http://www.w3.org/2000/svg"
 width="4000.000000pt" height="4000.000000pt" viewBox="0 0 4000.000000 4000.000000"
 preserveAspectRatio="xMidYMid meet">

<g transform="translate(0.000000,4000.000000) scale(0.100000,-0.100000)"
fill="#000" stroke="none">
<path d="M19643 36883 c-18 -3 -23 -11 -23 -38 0 -58 -55 -86 -240 -124 -52
-11 -147 -27 -210 -36 -220 -31 -486 -84 -564 -112 -82 -29 -234 -62 -401 -88
-367 -57 -442 -72 -602 -120 -68 -21 -232 -54 -415 -85 -354 -60 -351 -59
-533 -110 -172 -48 -227 -59 -528 -105 -232 -35 -314 -53 -508 -114 -95 -29
-179 -44 -529 -97 -193 -29 -304 -52 -395 -84 -110 -38 -207 -59 -540 -114
-229 -38 -373 -67 -470 -96 -177 -52 -228 -63 -458 -95 -232 -32 -387 -63
-542 -109 -171 -50 -221 -61 -490 -101 -133 -19 -298 -51 -370 -70 -293 -79
-371 -96 -620 -135 -252 -39 -358 -62 -535 -116 -47 -14 -186 -41 -310 -60
-311 -48 -453 -77 -605 -123 -158 -47 -194 -54 -450 -86 -300 -37 -454 -68
-470 -95 -7 -12 45 -53 123 -99 202 -116 225 -124 607 -200 211 -42 233 -48
387 -105 54 -20 202 -57 340 -86 268 -56 305 -66 393 -103 78 -33 176 -58 405
-102 128 -25 244 -56 375 -100 143 -48 238 -73 384 -100 134 -25 244 -52 357
-90 203 -67 198 -66 439 -115 125 -26 265 -63 375 -100 96 -32 233 -70 304
-84 175 -37 281 -72 316 -104 23 -21 32 -43 45 -104 21 -108 20 -124 -21 -208
-63 -130 -82 -193 -124 -401 -27 -135 -60 -262 -99 -379 -39 -115 -75 -251
-106 -399 -25 -123 -60 -262 -76 -310 -69 -197 -83 -246 -124 -451 -45 -221
-57 -263 -120 -434 -22 -63 -54 -190 -85 -345 -37 -187 -61 -278 -98 -381 -48
-130 -64 -192 -133 -525 -19 -93 -45 -184 -69 -240 -40 -97 -77 -238 -110
-430 -32 -183 -47 -232 -101 -334 -73 -137 -125 -209 -177 -244 -25 -18 -72
-54 -105 -82 -71 -60 -285 -227 -417 -327 -52 -40 -127 -101 -165 -137 -39
-36 -98 -88 -132 -115 -72 -56 -75 -38 30 -196 72 -108 193 -254 290 -349 l55
-53 103 43 c70 30 118 58 152 89 27 25 96 81 153 125 58 44 196 152 307 241
111 88 225 175 252 194 28 19 82 64 121 100 39 36 93 84 121 107 57 48 74 90
118 302 15 69 45 172 67 230 57 151 62 170 118 439 28 134 62 273 76 310 65
172 77 217 118 425 25 122 56 256 70 297 13 41 40 120 59 175 19 55 53 194 76
310 30 151 58 258 101 385 42 123 73 241 106 400 32 160 59 262 94 355 26 71
60 186 74 255 71 331 91 413 133 529 25 72 66 223 94 351 71 321 78 340 158
419 37 37 88 77 113 91 l46 24 84 -17 c274 -53 490 -102 552 -123 189 -66 237
-79 451 -125 138 -30 300 -74 406 -109 138 -46 217 -65 365 -90 235 -39 274
-49 410 -104 142 -57 186 -69 384 -105 194 -36 324 -70 427 -111 95 -38 187
-61 397 -99 206 -38 261 -52 355 -91 109 -44 184 -65 411 -110 216 -43 276
-59 405 -109 44 -17 145 -45 225 -62 364 -76 427 -92 515 -132 l89 -40 87 12
c48 6 129 26 180 45 52 19 220 61 374 95 159 35 319 76 371 95 111 42 191 63
441 115 106 22 252 60 325 85 163 54 206 65 433 111 116 23 242 56 355 95 218
73 245 78 299 51 90 -46 92 -64 98 -837 6 -713 9 -670 -53 -744 -34 -40 -145
-128 -204 -163 -25 -14 -103 -49 -175 -77 -71 -28 -159 -68 -195 -89 -81 -47
-116 -61 -258 -100 -63 -17 -180 -58 -260 -90 -165 -67 -196 -76 -442 -126
-96 -19 -209 -44 -250 -56 -306 -83 -402 -100 -675 -119 -256 -18 -839 -24
-1130 -11 -437 19 -670 46 -875 101 -116 31 -275 66 -480 105 -166 32 -216 46
-353 101 -60 24 -177 62 -260 85 -174 47 -267 80 -318 113 -19 13 -89 47 -155
76 -150 65 -188 91 -215 148 -22 45 -22 49 -27 746 -5 754 -2 718 -59 784 -25
29 -36 33 -113 43 -47 6 -178 12 -292 13 l-206 1 -27 -25 c-15 -14 -38 -46
-51 -72 l-24 -47 0 -933 c0 -1038 -7 -941 69 -1021 87 -93 154 -134 336 -205
55 -22 139 -62 187 -89 47 -27 137 -67 200 -88 62 -21 158 -58 213 -82 182
-81 212 -92 326 -118 147 -33 225 -56 384 -115 127 -47 246 -75 450 -106 157
-23 301 -52 415 -84 138 -38 195 -47 418 -71 395 -41 1312 -44 1687 -4 176 19
352 48 450 75 96 26 231 54 415 86 199 34 358 74 446 112 64 28 164 60 403
126 52 15 133 46 180 70 47 24 136 62 196 84 167 62 215 83 293 131 40 24 127
65 193 92 66 26 147 67 182 92 34 24 128 79 209 121 l146 77 36 89 36 90 0
1029 0 1030 48 48 c42 43 64 54 212 111 234 89 229 87 521 146 210 42 288 63
379 99 130 51 134 53 395 103 105 20 235 52 290 70 229 79 290 95 498 134 134
25 249 52 300 72 197 75 406 128 562 143 90 9 224 52 358 114 143 67 246 101
562 182 306 79 480 135 640 207 139 62 218 89 474 158 484 130 561 155 704
220 150 68 297 117 582 190 313 80 478 133 646 207 174 77 234 96 628 193 425
105 560 153 530 190 -36 44 -329 172 -464 204 -86 20 -280 44 -495 60 -206 15
-316 30 -399 52 -200 53 -298 69 -581 93 -257 22 -378 40 -500 75 -115 33
-233 49 -590 80 -191 16 -261 27 -370 55 -181 46 -349 72 -560 85 -228 15
-361 33 -490 70 -58 16 -143 36 -190 44 -110 19 -489 53 -751 66 -193 10 -375
27 -679 66 -156 19 -253 37 -400 74 -187 46 -240 54 -695 105 -299 33 -406 50
-540 85 -202 52 -384 81 -775 121 -229 23 -342 42 -570 93 -165 37 -341 65
-585 91 -400 43 -466 53 -636 96 -184 46 -331 69 -804 124 -231 27 -476 66
-560 88 -48 13 -50 15 -56 55 -3 23 -9 45 -13 49 -8 9 -786 14 -823 6z m564
-813 c43 -6 211 -37 373 -70 162 -33 374 -69 470 -80 520 -63 660 -83 825
-120 170 -38 497 -90 650 -105 172 -16 402 -49 535 -76 80 -17 197 -41 260
-55 115 -24 342 -54 709 -94 165 -18 417 -60 439 -74 32 -19 304 -63 627 -101
426 -50 503 -62 675 -105 148 -38 245 -53 575 -91 551 -62 758 -100 796 -145
26 -31 94 -56 231 -84 112 -23 146 -34 175 -57 39 -31 35 -29 114 -67 78 -38
120 -83 126 -138 4 -39 0 -51 -46 -121 -61 -92 -118 -152 -221 -229 -133 -100
-303 -169 -497 -202 -50 -9 -103 -20 -119 -25 -16 -5 -63 -12 -105 -15 -89 -8
-179 -32 -303 -82 -62 -25 -162 -51 -330 -85 -247 -50 -325 -71 -502 -133 -56
-19 -177 -49 -270 -66 -213 -39 -346 -72 -419 -104 -90 -40 -184 -65 -420
-111 -212 -42 -289 -63 -440 -120 -38 -15 -164 -46 -278 -71 -246 -51 -243
-51 -467 -120 -96 -29 -256 -70 -355 -89 -201 -41 -259 -56 -425 -113 -113
-39 -145 -47 -466 -117 -89 -19 -228 -57 -310 -85 -95 -31 -232 -66 -375 -94
-124 -25 -257 -57 -295 -71 -160 -60 -210 -75 -365 -104 -271 -52 -310 -61
-419 -99 -88 -30 -120 -35 -195 -36 -78 -1 -100 3 -170 30 -47 19 -166 49
-290 74 -253 50 -302 62 -382 95 -100 40 -255 81 -431 114 -205 38 -266 54
-371 97 -94 38 -228 72 -401 103 -152 28 -306 69 -465 124 -84 29 -196 58
-315 81 -254 48 -266 51 -383 95 -142 54 -181 65 -435 116 -144 29 -279 64
-385 99 -89 30 -238 71 -332 91 -232 49 -343 78 -455 118 -100 37 -258 75
-425 103 -103 17 -202 45 -385 108 -58 21 -186 53 -285 72 -224 43 -296 61
-363 91 -99 42 -207 71 -461 123 -172 34 -285 63 -354 89 -132 50 -310 95
-457 116 -101 15 -218 49 -267 78 l-52 31 21 29 c53 75 220 158 414 207 65 16
245 50 398 75 350 58 439 76 621 128 106 31 237 56 470 92 94 14 193 30 220
36 123 27 227 53 320 80 55 16 183 43 285 60 376 60 487 82 590 115 133 42
203 57 475 99 338 53 374 61 565 120 103 32 201 51 409 81 210 30 383 64 494
98 155 47 243 65 507 106 284 44 392 66 510 105 121 40 228 62 515 106 258 39
387 67 575 124 164 50 352 66 517 45z"/>
<path d="M24919 30390 c-57 -30 -143 -151 -213 -300 -45 -94 -64 -169 -72
-279 l-7 -88 44 -35 c24 -20 71 -53 104 -74 33 -21 83 -59 110 -84 28 -26 77
-67 110 -92 62 -47 253 -245 344 -355 28 -34 55 -64 61 -68 6 -4 38 -48 72
-98 34 -51 84 -121 110 -156 27 -35 73 -112 102 -170 30 -58 76 -143 103 -188
29 -47 70 -138 98 -215 26 -73 67 -175 91 -225 54 -115 62 -144 119 -423 26
-124 61 -288 80 -365 68 -284 73 -341 81 -890 4 -257 11 -415 17 -423 6 -7 30
-24 53 -38 34 -20 69 -28 171 -39 301 -34 454 -12 491 70 24 53 35 257 29 570
-6 328 -19 471 -63 684 -14 69 -48 257 -75 416 -58 338 -68 379 -119 500 -21
50 -63 168 -94 264 -59 180 -66 196 -134 321 -23 41 -60 120 -82 175 -45 109
-71 156 -105 195 -12 14 -52 76 -89 138 -36 63 -92 148 -124 190 -32 42 -82
111 -112 152 -65 92 -142 180 -282 324 -59 61 -114 120 -122 132 -8 11 -41 40
-73 64 -32 24 -89 74 -128 110 -38 37 -103 86 -143 109 -40 23 -98 63 -128 87
-57 46 -172 124 -183 124 -3 -1 -22 -10 -42 -20z"/>
<path d="M16765 27363 c-111 -10 -276 -36 -320 -50 -27 -9 -83 -31 -123 -50
-41 -18 -133 -54 -205 -79 -156 -54 -149 -51 -257 -124 -47 -31 -117 -75 -157
-98 -39 -23 -95 -63 -125 -90 -29 -26 -82 -71 -118 -99 -123 -97 -389 -385
-477 -516 -22 -34 -70 -101 -105 -150 -34 -48 -90 -138 -123 -201 -33 -62 -75
-136 -92 -163 -49 -76 -50 -79 -10 -116 47 -45 202 -155 257 -183 48 -25 227
-79 296 -90 36 -5 45 -3 77 26 59 51 183 210 229 293 42 74 129 186 272 350
84 96 351 327 408 353 23 10 78 38 122 62 243 128 274 137 566 156 114 8 207
19 223 27 43 20 61 67 111 289 54 246 68 332 60 364 -6 27 -67 58 -159 81 -55
14 -237 18 -350 8z"/>
<path d="M11308 26280 c-57 -10 -145 -49 -195 -87 -57 -43 -117 -133 -141
-209 -18 -58 -59 -490 -258 -2698 -187 -2071 -235 -2635 -227 -2657 11 -27 9
-29 -19 -37 l-31 -8 49 -43 c27 -24 162 -128 299 -232 138 -103 265 -201 284
-217 l35 -29 -87 -344 c-48 -189 -114 -452 -148 -584 l-62 -240 -177 -180
c-191 -195 -233 -245 -228 -270 5 -29 245 -112 493 -170 116 -28 165 -31 183
-13 27 27 12 131 -65 445 l-47 191 53 199 c131 492 214 760 251 805 l18 22 43
-29 c24 -15 107 -76 184 -134 182 -138 287 -211 302 -211 14 0 56 87 73 150
47 177 202 217 885 227 428 6 576 -6 876 -72 498 -110 1054 -409 1401 -754
140 -140 145 -152 127 -301 -16 -125 -11 -134 70 -126 177 18 430 47 451 51
14 3 210 25 435 50 226 25 419 49 430 52 11 4 162 8 335 8 330 2 400 8 826 69
219 32 275 46 408 108 60 27 170 70 245 94 109 35 152 55 216 99 44 30 131 77
193 105 66 29 153 77 205 115 51 36 133 94 184 128 119 80 363 266 363 277 0
4 30 30 66 58 88 68 328 304 499 492 77 84 153 161 169 171 28 17 31 17 78 -2
111 -43 146 -68 229 -161 134 -151 527 -537 633 -623 55 -44 135 -111 179
-148 44 -38 125 -98 179 -135 54 -37 120 -82 146 -100 26 -18 74 -47 107 -64
33 -17 111 -64 173 -105 80 -53 136 -82 190 -99 68 -21 122 -46 303 -141 25
-13 133 -46 240 -72 107 -27 255 -67 329 -89 74 -22 182 -48 240 -56 170 -26
444 -36 686 -26 258 11 333 21 474 59 58 15 164 44 235 64 72 19 193 50 270
67 116 27 159 43 250 90 60 32 161 76 224 99 132 49 148 56 240 116 37 24 117
67 177 95 60 28 130 68 155 90 25 21 93 67 150 101 57 34 131 83 164 109 33
25 98 73 145 105 47 32 112 82 145 110 33 28 94 75 137 103 42 28 86 65 97 81
12 16 49 50 84 76 34 25 77 57 96 72 l34 26 -5 96 c-6 117 -19 145 -96 205
-32 24 -71 62 -87 83 -58 78 -93 106 -198 159 l-108 55 -62 -54 c-34 -29 -90
-75 -124 -101 -35 -26 -63 -51 -63 -56 0 -9 -204 -168 -333 -259 -34 -24 -103
-75 -152 -112 -50 -37 -137 -94 -195 -125 -58 -31 -127 -73 -155 -94 -57 -44
-137 -85 -241 -124 -39 -15 -98 -43 -130 -62 -106 -65 -152 -84 -296 -125 -79
-22 -213 -62 -299 -89 -224 -70 -277 -79 -539 -91 -268 -13 -533 -2 -685 30
-49 10 -214 60 -366 110 -220 73 -295 103 -365 144 -49 29 -136 74 -194 101
-58 26 -132 69 -165 95 -33 26 -96 69 -140 96 -277 170 -791 651 -1039 973
-33 42 -92 118 -133 168 -40 50 -88 122 -105 160 l-33 69 -6 605 c-4 333 -4
774 0 980 6 354 7 377 27 410 28 49 78 80 127 80 37 0 47 -6 97 -57 31 -32 81
-92 112 -133 56 -74 57 -77 102 -258 52 -211 44 -195 241 -496 86 -132 307
-351 445 -441 58 -38 128 -86 156 -107 61 -46 71 -49 413 -148 l275 -80 166 0
c149 0 177 3 285 29 200 50 456 130 530 166 92 46 279 176 384 267 95 83 238
244 295 333 202 317 211 340 270 678 14 81 32 162 40 180 7 18 61 82 119 143
105 110 108 112 209 153 135 55 143 59 203 104 27 21 119 72 203 113 84 41
172 87 195 103 23 16 110 63 192 105 83 42 178 93 213 115 34 21 117 63 184
92 66 29 141 70 166 91 25 20 98 60 161 88 64 29 154 76 201 105 112 69 120
73 179 86 46 10 56 8 105 -14 29 -14 87 -47 127 -74 41 -28 100 -65 132 -83
l58 -33 82 18 c171 35 284 67 331 93 33 18 68 52 113 109 l64 82 -30 58 c-16
32 -41 83 -55 115 -15 31 -51 85 -82 120 -152 175 -160 182 -250 231 -49 27
-113 64 -142 82 -97 60 -371 107 -505 85 -75 -12 -107 -24 -202 -78 -38 -21
-113 -56 -165 -76 -186 -73 -222 -90 -306 -143 -46 -31 -130 -75 -186 -99 -57
-25 -145 -73 -198 -108 -52 -35 -137 -80 -188 -101 -51 -21 -123 -58 -160 -83
-37 -24 -132 -76 -212 -116 -80 -40 -183 -95 -230 -123 -186 -112 -321 -163
-434 -163 -56 0 -61 2 -97 40 -21 22 -56 70 -77 107 -22 38 -66 97 -99 133
-32 36 -80 91 -107 123 -27 32 -73 76 -102 98 -29 21 -75 61 -102 88 -34 34
-87 69 -168 110 -66 34 -157 83 -203 111 -65 38 -107 54 -192 74 -156 37 -252
46 -544 53 -383 9 -543 -12 -720 -91 -92 -41 -281 -142 -326 -175 -184 -132
-397 -358 -496 -523 -70 -117 -140 -207 -196 -252 -37 -30 -43 -31 -125 -30
-48 1 -150 10 -227 20 -113 15 -203 19 -465 19 -318 -1 -329 -2 -515 -33 -104
-17 -228 -36 -275 -42 l-85 -11 -37 43 c-21 23 -56 77 -79 120 -23 43 -52 91
-63 107 -132 179 -213 279 -279 343 -124 122 -269 234 -370 284 -51 26 -111
60 -134 75 -94 65 -276 116 -457 130 -159 11 -471 11 -621 -1 -118 -9 -297
-44 -384 -75 -86 -30 -368 -188 -461 -258 -216 -162 -363 -347 -504 -637 -144
-294 -171 -426 -164 -815 l4 -210 42 -154 c42 -153 62 -205 103 -269 12 -18
48 -92 80 -164 43 -95 76 -152 117 -202 32 -39 72 -92 90 -117 63 -93 248
-256 416 -366 87 -57 175 -112 195 -122 49 -25 493 -150 600 -168 126 -22 335
-13 466 20 170 43 447 127 503 152 29 13 78 44 110 68 31 24 93 64 137 88 104
57 286 229 374 354 35 49 78 108 96 130 45 55 99 156 134 251 16 43 52 131 79
194 27 63 61 147 76 187 35 91 97 188 133 206 41 22 176 32 212 17 54 -22 61
-60 73 -394 10 -308 4 -1254 -11 -1501 -7 -114 -11 -135 -32 -166 -13 -20 -59
-87 -101 -150 -42 -63 -101 -141 -131 -174 -29 -33 -70 -82 -91 -110 -57 -76
-423 -451 -491 -503 -33 -25 -87 -71 -120 -102 -33 -31 -82 -71 -110 -90 -27
-18 -81 -59 -120 -91 -38 -31 -122 -88 -185 -127 -63 -38 -141 -87 -173 -109
-31 -23 -103 -58 -160 -78 -56 -21 -158 -67 -227 -102 -119 -60 -134 -65 -300
-98 -481 -94 -522 -99 -720 -99 -201 0 -330 16 -683 80 -257 47 -294 57 -420
115 -60 28 -169 72 -243 99 -132 48 -197 80 -259 126 -16 12 -77 46 -135 74
-61 31 -155 90 -225 143 -124 94 -545 417 -765 587 -69 54 -166 127 -217 164
l-91 66 -474 -59 c-260 -33 -617 -79 -793 -101 -493 -63 -447 -59 -440 -41 24
60 58 202 71 286 8 55 72 750 144 1545 71 795 132 1459 134 1476 l4 31 -81 12
c-113 17 -178 36 -266 81 -234 117 -386 318 -437 578 -21 111 -19 139 15 173
40 39 80 39 120 -2 17 -17 31 -34 31 -38 0 -5 7 -48 15 -97 41 -231 198 -415
419 -489 67 -22 331 -55 446 -55 57 0 100 41 100 97 1 56 -160 1572 -171 1614
-11 46 -42 85 -82 106 -23 12 -193 30 -677 74 -689 62 -661 61 -732 49z
m11718 -1701 c125 -12 258 -41 322 -69 72 -32 249 -167 364 -278 95 -92 110
-112 137 -177 17 -40 31 -75 31 -77 0 -3 -80 35 -177 83 -254 124 -711 338
-738 345 -24 6 -93 -23 -325 -136 -74 -37 -200 -97 -279 -135 l-143 -70 4 -83
c5 -101 12 -108 123 -152 44 -17 90 -38 103 -46 l23 -15 -40 -72 c-68 -125
-81 -177 -81 -335 0 -80 5 -153 12 -172 l11 -34 15 49 14 50 32 -82 c40 -101
84 -169 142 -222 43 -41 131 -101 146 -101 4 0 1 19 -7 41 -8 23 -15 44 -15
46 0 3 33 -29 73 -71 74 -78 97 -91 97 -55 0 16 9 9 41 -31 45 -57 51 -56 90
6 22 36 39 44 39 19 0 -26 37 0 108 74 l63 66 -16 -44 c-8 -24 -15 -45 -15
-47 0 -15 36 5 102 56 89 70 169 180 196 272 9 32 20 58 24 58 3 0 13 -19 21
-42 l14 -43 13 44 c7 29 11 94 8 185 -3 131 -6 146 -34 212 -98 227 -319 369
-574 368 -152 -1 -270 -40 -388 -129 -66 -50 -82 -52 -27 -3 81 71 172 123
250 144 80 22 283 18 352 -6 74 -26 178 -88 240 -145 l51 -45 214 85 c118 47
220 85 226 85 17 0 27 -24 58 -135 38 -137 38 -249 1 -400 -67 -267 -99 -335
-231 -482 -117 -130 -176 -176 -285 -224 -53 -22 -142 -63 -197 -90 l-102 -49
-191 0 -191 0 -188 92 c-167 83 -194 100 -252 158 -88 88 -195 237 -242 336
-48 104 -85 241 -100 375 -10 91 -9 121 5 205 20 125 88 338 125 392 48 72
182 212 260 271 154 117 216 143 417 175 116 18 139 18 271 5z m-5125 -8 c80
-5 199 -19 265 -31 l119 -22 55 -52 c30 -29 89 -77 130 -108 41 -30 85 -73 98
-94 13 -21 46 -77 74 -124 28 -47 62 -104 76 -128 l25 -43 -99 49 c-136 68
-672 322 -763 362 -66 29 -78 31 -110 21 -20 -6 -187 -86 -371 -178 l-335
-168 1 -35 c1 -19 7 -60 13 -91 l12 -57 117 -47 c64 -26 118 -49 120 -50 1 -1
-18 -37 -42 -81 -72 -127 -89 -190 -90 -324 -1 -74 4 -133 14 -165 l14 -50 11
37 c5 20 14 38 18 40 5 2 21 -29 36 -67 33 -87 96 -181 153 -230 50 -42 127
-90 134 -82 3 3 -2 22 -11 42 -20 50 -12 55 22 14 40 -50 112 -119 123 -119 6
0 10 8 10 18 1 12 14 2 44 -32 l43 -49 39 52 c32 43 40 49 42 32 2 -12 8 -21
14 -21 6 0 44 34 85 76 40 42 73 74 73 72 0 -3 -7 -24 -15 -47 -8 -22 -11 -41
-7 -41 20 0 112 68 163 121 60 63 111 149 135 230 9 28 17 49 20 47 2 -3 10
-22 18 -44 l14 -39 12 30 c7 20 10 83 8 186 l-3 156 -44 88 c-75 152 -213 267
-378 316 -99 30 -253 30 -356 1 -97 -28 -127 -42 -199 -98 -31 -24 -60 -44
-64 -44 -16 0 35 46 98 87 88 57 141 79 240 99 174 35 355 -16 517 -147 52
-43 67 -50 89 -44 15 4 108 38 206 76 235 92 232 91 245 43 14 -54 31 -241 31
-344 -1 -187 -27 -290 -109 -420 -32 -52 -74 -119 -93 -149 -37 -60 -230 -241
-287 -270 -85 -44 -334 -142 -392 -156 -122 -28 -325 -12 -418 34 -139 69
-306 186 -401 282 -52 52 -105 111 -117 130 -13 19 -52 78 -87 132 -90 136
-106 207 -106 458 0 278 11 313 164 549 76 116 92 134 197 220 217 177 366
215 760 191z m154 -430 c38 -11 93 -32 121 -46 48 -24 53 -29 63 -73 14 -64
25 -158 17 -151 -3 3 -14 46 -24 95 l-18 89 -79 28 c-177 62 -389 73 -559 27
-150 -40 -174 -62 -197 -183 -16 -88 -23 -60 -9 39 8 56 19 93 30 104 17 17
158 68 245 89 22 6 108 9 190 7 116 -3 166 -9 220 -25z m5095 14 c86 -20 190
-62 217 -87 16 -15 23 -37 28 -87 3 -36 8 -79 11 -96 3 -21 2 -26 -4 -15 -6 8
-13 35 -17 60 -17 110 -22 120 -82 146 -94 42 -185 57 -343 58 -152 0 -252
-17 -355 -63 -47 -21 -49 -25 -83 -166 -9 -36 -10 -37 -10 -10 0 17 5 64 12
105 l12 75 74 28 c41 16 111 37 155 47 102 23 295 26 385 5z m-5596 -475 c64
-24 138 -85 163 -134 26 -51 22 -127 -11 -176 -55 -83 -182 -106 -260 -46
-109 83 -91 233 36 305 l52 30 -36 16 c-21 8 -42 15 -47 15 -5 0 -13 5 -17 12
-10 16 46 6 120 -22z m616 20 c0 -5 -5 -10 -10 -10 -6 0 -27 -7 -48 -15 l-36
-16 44 -25 c63 -36 87 -61 106 -110 20 -54 14 -100 -21 -159 -22 -38 -33 -47
-77 -60 -80 -23 -128 -20 -175 14 -54 39 -76 89 -71 157 8 96 77 170 197 211
74 25 91 28 91 13z m4510 -12 c55 -16 130 -68 161 -111 44 -61 54 -108 34
-167 -46 -138 -240 -162 -322 -41 -62 92 -28 208 78 261 44 23 49 35 17 43
-13 4 -32 13 -43 22 -19 15 -19 15 10 9 17 -3 46 -10 65 -16z m640 17 c0 -2
-21 -14 -47 -25 l-48 -22 37 -19 c92 -47 142 -141 119 -220 -25 -82 -91 -129
-184 -129 -105 0 -191 103 -171 206 7 40 67 120 113 154 51 35 181 76 181 55z"/>
<path d="M22087 23998 c-31 -17 -55 -33 -52 -36 3 -3 33 -19 68 -36 l62 -31
-2 -164 -1 -164 -49 -93 c-26 -51 -45 -96 -41 -100 11 -10 141 -18 182 -10 47
9 46 24 -8 116 l-43 75 -7 170 c-10 257 -16 305 -35 305 -9 0 -42 -15 -74 -32z"/>
<path d="M16956 24007 c-33 -18 -61 -37 -63 -44 -2 -6 20 -20 49 -31 87 -32
90 -42 79 -217 l-10 -150 -48 -92 c-26 -50 -44 -95 -40 -100 11 -10 159 -17
192 -9 34 9 32 27 -16 114 l-41 75 -9 191 c-10 214 -17 296 -27 296 -4 0 -34
-15 -66 -33z"/>
<path d="M17510 23577 c-60 -21 -92 -122 -54 -175 50 -72 175 -64 204 13 23
62 23 62 -35 120 -61 59 -62 60 -115 42z"/>
<path d="M18015 23580 c-35 -14 -66 -57 -72 -97 -19 -143 182 -184 227 -47 12
36 0 74 -23 74 -6 0 -28 18 -48 40 -37 41 -49 45 -84 30z"/>
<path d="M22654 23576 c-45 -20 -64 -53 -64 -108 0 -39 6 -54 29 -80 27 -30
35 -33 85 -33 71 0 106 30 113 98 5 43 4 46 -25 61 -17 9 -37 28 -44 43 -15
33 -48 39 -94 19z"/>
<path d="M23152 23573 c-93 -46 -76 -200 25 -219 47 -9 82 3 115 38 40 43 37
78 -9 126 -21 22 -44 47 -51 56 -16 20 -38 20 -80 -1z"/>
<path d="M8836 24310 c-17 -10 -36 -31 -44 -45 -9 -18 -39 -313 -93 -903 -84
-937 -89 -972 -153 -1104 -122 -249 -351 -413 -627 -450 -77 -10 -90 -9 -113
5 -33 22 -47 72 -32 111 14 36 68 66 118 66 94 0 258 76 356 165 88 79 191
279 192 370 l0 30 -1632 148 c-1771 161 -1674 149 -1731 216 -52 63 -52 66
-11 522 36 397 37 421 21 453 -9 20 -30 42 -46 51 -23 11 -233 34 -797 85
-422 39 -786 70 -809 70 -58 0 -107 -34 -122 -85 -20 -66 -147 -1502 -146
-1650 3 -605 441 -1125 1044 -1239 96 -19 4808 -446 4913 -446 100 0 267 27
371 61 115 36 264 112 365 185 92 66 238 213 303 305 87 124 164 299 202 459
8 36 62 588 120 1227 102 1116 105 1164 89 1198 -34 72 -1 67 -854 144 -426
39 -793 71 -815 71 -23 0 -53 -9 -69 -20z"/>
<path d="M6603 20670 c-28 -11 -867 -704 -887 -732 -18 -26 -21 -70 -6 -98 19
-36 722 -865 743 -877 55 -31 57 -30 517 353 461 385 469 393 452 456 -9 35
-708 871 -745 890 -36 20 -42 21 -74 8z"/>
<path d="M12450 19745 c-135 -15 -299 -49 -341 -71 -29 -15 -33 -23 -113 -309
-78 -279 -563 -2067 -696 -2565 -45 -168 -126 -471 -180 -675 -54 -203 -118
-440 -140 -525 l-42 -155 132 -275 c345 -723 861 -1690 901 -1690 51 0 543
298 1265 767 109 71 294 191 410 266 l211 137 18 68 c10 37 109 400 221 807
111 407 286 1051 389 1430 103 380 264 975 359 1323 l173 633 -49 44 c-67 60
-266 210 -368 277 -368 242 -860 438 -1265 503 -142 23 -712 29 -885 10z m29
-1255 c53 -28 52 -146 -3 -380 -19 -80 -116 -446 -216 -815 -100 -368 -199
-735 -220 -815 -61 -231 -259 -946 -270 -975 -10 -25 -13 -26 -63 -21 -28 3
-131 13 -227 21 -272 23 -295 26 -309 35 -24 14 -19 58 30 275 94 409 697
2636 720 2660 17 17 528 32 558 15z m511 -66 c248 -49 651 -169 745 -222 41
-23 50 -32 47 -52 -1 -14 -50 -200 -108 -415 -58 -214 -159 -590 -225 -835
-234 -867 -460 -1694 -464 -1699 -4 -4 -98 19 -310 75 -502 133 -658 176 -680
186 -21 10 -25 16 -20 37 8 34 398 1486 581 2161 80 294 159 587 176 650 17
63 36 121 42 128 12 16 91 10 216 -14z m-1578 -3089 c602 -57 1018 -156 1678
-398 187 -69 483 -212 477 -230 -7 -24 -144 -130 -297 -231 -382 -253 -550
-357 -564 -349 -6 4 -40 26 -76 49 -163 104 -374 188 -554 219 -56 9 -152 15
-260 15 l-172 0 -85 163 c-119 226 -294 590 -319 661 -26 78 -26 116 2 116 4
0 81 -7 170 -15z"/>
<path d="M19954 18680 c-85 -7 -113 -20 -163 -74 l-24 -26 7 -262 c3 -145 11
-280 16 -300 6 -20 25 -50 42 -67 l32 -31 527 0 527 0 31 30 c17 17 35 47 40
67 6 21 14 158 17 306 l7 268 -49 50 -48 49 -441 -1 c-242 -1 -477 -5 -521 -9z"/>
<path d="M25543 18271 c-40 -25 -77 -80 -101 -151 -11 -30 -40 -94 -66 -141
-25 -47 -71 -146 -101 -219 -30 -73 -81 -174 -114 -224 -32 -50 -81 -130 -108
-177 -28 -48 -70 -113 -95 -145 -24 -33 -64 -88 -88 -124 -164 -244 -544 -635
-824 -845 -87 -66 -221 -163 -297 -215 -277 -190 -492 -370 -709 -596 -132
-137 -330 -371 -378 -447 -20 -31 -67 -100 -105 -151 -37 -52 -88 -139 -113
-193 -25 -54 -67 -129 -93 -168 -63 -93 -67 -100 -116 -236 -26 -70 -70 -163
-111 -232 -38 -64 -84 -142 -102 -174 -38 -68 -185 -229 -292 -321 -59 -50
-113 -82 -250 -149 -214 -104 -230 -110 -350 -128 -153 -22 -331 -28 -545 -16
-262 14 -350 30 -586 106 -212 68 -402 115 -467 115 -57 0 -91 -32 -148 -143
-26 -50 -60 -111 -77 -135 -43 -65 -107 -206 -107 -239 0 -61 92 -168 183
-212 26 -13 139 -45 250 -72 111 -27 276 -70 367 -95 90 -26 212 -55 270 -65
229 -39 826 -33 990 10 85 21 450 137 551 174 37 13 100 46 140 74 41 27 112
72 158 99 68 39 120 85 271 234 152 152 197 203 245 280 32 52 75 118 96 145
20 28 61 108 89 180 28 71 70 161 93 200 22 38 68 131 102 205 34 74 86 171
117 215 30 44 74 112 97 152 23 40 78 116 122 170 44 54 105 128 136 165 69
84 314 324 412 403 98 79 222 169 349 252 57 37 122 82 145 100 23 18 68 51
100 75 146 108 256 205 435 382 216 213 455 477 522 576 24 36 69 97 100 135
31 39 76 106 100 150 24 44 69 116 100 160 60 84 99 155 119 217 7 20 37 76
68 125 67 106 89 153 137 300 21 64 58 145 85 190 88 146 88 147 -7 234 -110
101 -196 141 -384 178 -172 33 -179 34 -215 12z"/>
<path d="M11515 12493 c-159 -8 -548 -35 -695 -48 -91 -8 -275 -24 -410 -35
-419 -36 -568 -59 -780 -123 -63 -19 -187 -52 -275 -72 -88 -21 -172 -44 -187
-51 -51 -26 -53 -38 -51 -321 1 -239 3 -265 22 -307 11 -26 28 -49 37 -53 37
-14 208 15 304 52 101 38 234 65 450 90 173 21 495 69 669 99 372 66 427 69
1186 70 775 1 829 -2 1295 -83 96 -17 279 -44 405 -61 411 -55 487 -69 620
-110 169 -53 279 -82 445 -115 173 -35 286 -68 359 -105 32 -16 121 -48 197
-70 194 -58 241 -75 389 -140 72 -31 182 -74 245 -94 107 -35 161 -60 282
-130 26 -15 99 -47 162 -71 63 -24 151 -67 195 -95 45 -29 127 -72 184 -97 56
-25 141 -71 190 -104 48 -33 129 -79 180 -104 51 -24 126 -69 167 -100 41 -31
107 -75 145 -97 39 -22 102 -64 140 -93 39 -28 111 -78 160 -110 92 -59 220
-157 398 -304 56 -46 127 -101 157 -121 30 -21 73 -57 95 -80 22 -23 72 -67
110 -98 95 -76 544 -521 642 -635 43 -50 110 -125 149 -167 39 -41 85 -96 103
-122 17 -26 55 -74 84 -105 67 -73 266 -340 342 -458 32 -49 77 -115 99 -145
23 -30 68 -101 99 -157 31 -56 77 -130 101 -163 25 -34 70 -112 99 -174 30
-62 70 -135 90 -162 19 -27 60 -101 91 -163 59 -119 80 -151 102 -151 7 0 38
44 70 98 31 53 78 131 104 172 26 41 71 122 100 180 29 57 74 136 100 175 26
38 71 113 100 165 29 52 79 130 111 173 32 43 72 104 90 137 17 32 52 85 78
117 26 32 79 103 118 158 39 55 98 130 131 167 33 36 78 90 100 120 21 29 61
78 89 108 27 30 70 80 94 110 52 64 384 407 479 495 36 33 88 83 115 111 28
28 77 70 110 94 33 24 83 67 110 96 77 80 470 391 633 501 42 28 116 80 164
115 48 35 118 80 156 101 37 21 103 65 147 98 44 32 127 82 185 110 58 28 132
70 165 93 33 24 121 74 195 111 74 37 156 82 181 101 51 37 104 62 229 106 85
30 115 45 224 112 33 19 69 38 80 42 83 24 316 114 386 149 86 43 187 77 336
114 78 19 139 41 302 110 45 19 158 48 292 76 131 27 278 66 363 95 168 57
182 60 517 105 368 50 518 73 665 100 313 58 581 75 1215 75 606 0 850 -15
1155 -71 166 -30 430 -69 763 -114 224 -30 276 -41 444 -95 144 -46 240 -70
286 -70 l32 0 0 375 0 375 -42 0 c-120 0 -229 22 -573 114 -124 33 -245 52
-480 76 -478 47 -939 82 -1352 102 -291 13 -682 1 -1041 -32 -114 -10 -331
-28 -482 -40 -485 -37 -650 -63 -972 -153 -70 -20 -201 -47 -293 -61 -197 -30
-292 -54 -438 -107 -59 -22 -197 -65 -305 -95 -108 -30 -264 -82 -345 -115
-81 -32 -194 -72 -250 -88 -140 -40 -177 -54 -287 -110 -52 -27 -142 -65 -199
-86 -141 -50 -184 -70 -234 -104 -59 -40 -130 -74 -221 -107 -43 -15 -115 -50
-160 -77 -44 -27 -103 -63 -131 -79 -27 -17 -85 -46 -129 -64 -43 -19 -115
-58 -160 -87 -44 -30 -124 -78 -176 -107 -52 -30 -119 -71 -149 -93 -29 -22
-98 -66 -152 -98 -55 -32 -125 -79 -155 -104 -31 -25 -101 -75 -157 -111 -56
-37 -124 -86 -152 -109 -27 -23 -79 -61 -115 -85 -36 -24 -99 -74 -140 -110
-41 -37 -96 -82 -121 -101 -144 -106 -667 -602 -927 -878 -160 -171 -325 -361
-395 -456 -24 -33 -59 -73 -77 -90 -17 -16 -63 -76 -101 -131 -117 -171 -269
-314 -321 -301 -46 12 -219 202 -309 340 -27 41 -73 102 -104 136 -30 34 -72
85 -94 115 -22 29 -70 87 -108 128 -37 41 -121 133 -186 205 -218 243 -809
808 -987 943 -25 18 -70 57 -100 85 -30 28 -91 75 -135 105 -44 29 -102 72
-130 95 -27 23 -89 67 -136 98 -48 30 -124 84 -170 119 -46 35 -113 81 -149
102 -36 22 -99 63 -140 92 -41 28 -122 77 -178 108 -57 31 -137 79 -177 106
-41 28 -121 72 -178 99 -57 26 -132 67 -167 90 -83 55 -141 84 -242 121 -46
17 -124 55 -174 85 -54 33 -146 75 -226 104 -74 27 -184 74 -244 104 -110 55
-151 70 -326 127 -54 17 -136 48 -183 70 -94 43 -147 60 -375 119 -85 22 -231
65 -324 96 -126 42 -228 68 -400 101 -127 24 -287 59 -356 78 -247 70 -453
101 -900 136 -140 11 -370 29 -510 40 -412 32 -826 45 -1065 33z"/>
<path d="M10216 10379 c-485 -18 -833 -53 -941 -94 -84 -31 -108 -52 -146
-128 l-29 -57 6 -220 7 -219 29 -36 c29 -35 30 -35 111 -35 45 0 219 11 387
24 522 42 719 50 1205 51 481 0 594 -5 1165 -51 425 -34 560 -50 691 -84 255
-67 401 -100 539 -125 186 -33 313 -63 370 -88 89 -38 178 -67 345 -111 197
-52 214 -58 360 -121 61 -26 172 -67 247 -90 97 -30 166 -59 236 -99 54 -31
153 -76 221 -100 113 -42 150 -59 274 -130 26 -16 97 -50 158 -76 60 -27 145
-71 187 -98 42 -27 124 -73 182 -102 58 -29 128 -69 155 -89 54 -40 141 -93
218 -132 26 -13 88 -55 139 -92 50 -37 118 -83 151 -103 33 -19 92 -61 131
-93 39 -32 100 -78 136 -101 117 -78 456 -356 620 -509 52 -49 154 -143 225
-209 150 -139 133 -122 278 -278 151 -163 241 -265 306 -343 29 -36 77 -93
106 -126 77 -89 232 -294 297 -393 31 -48 83 -123 116 -167 33 -44 81 -116
107 -160 26 -44 71 -114 100 -156 30 -42 81 -132 114 -200 33 -68 77 -145 96
-171 20 -26 59 -102 86 -170 28 -68 75 -163 104 -213 34 -57 69 -136 96 -215
23 -69 68 -184 100 -256 60 -137 72 -174 135 -409 20 -77 57 -194 81 -260 78
-207 114 -467 79 -560 -27 -71 -60 -82 -265 -97 -194 -14 -259 -6 -350 39 -95
48 -149 112 -205 243 -26 63 -74 158 -106 210 -32 52 -79 137 -104 188 -25 51
-70 128 -99 170 -30 42 -79 125 -111 183 -32 58 -78 130 -102 160 -24 30 -64
86 -89 126 -24 40 -79 117 -122 172 -43 54 -113 146 -156 203 -150 200 -212
278 -234 294 -13 8 -51 52 -85 97 -78 103 -569 610 -686 709 -48 40 -113 99
-144 130 -32 31 -83 76 -115 99 -32 23 -87 70 -123 103 -36 34 -101 86 -145
117 -44 31 -109 81 -145 111 -36 30 -101 80 -145 112 -44 31 -104 76 -134 100
-29 24 -83 60 -120 80 -36 20 -102 64 -146 97 -44 32 -105 73 -135 91 -89 50
-152 90 -205 129 -27 21 -94 58 -149 83 -54 25 -131 68 -170 94 -106 72 -158
101 -213 117 -27 8 -87 38 -134 66 -115 70 -178 100 -287 139 -51 18 -118 49
-150 68 -114 70 -159 91 -267 122 -60 17 -171 60 -245 95 -91 43 -192 81 -310
115 -96 28 -224 71 -285 95 -141 56 -209 76 -435 126 -102 22 -223 55 -270 74
-174 68 -199 73 -566 120 -154 19 -328 47 -389 61 -430 100 -822 129 -1700
129 -712 -1 -784 -9 -825 -91 -32 -64 -24 -520 11 -585 21 -40 50 -42 774 -49
492 -5 763 -12 910 -24 116 -9 307 -23 425 -32 352 -26 443 -39 632 -93 100
-29 249 -61 548 -117 80 -15 190 -42 245 -61 202 -69 278 -93 435 -133 101
-26 208 -61 288 -96 70 -30 186 -74 257 -98 72 -24 182 -67 245 -96 63 -29
178 -77 255 -108 77 -31 169 -75 205 -98 36 -23 124 -68 195 -100 72 -32 155
-75 185 -95 30 -20 105 -62 167 -92 61 -31 154 -85 205 -120 51 -35 127 -81
168 -103 41 -21 122 -72 180 -113 58 -40 129 -89 159 -108 30 -19 93 -65 142
-101 48 -37 108 -79 132 -94 24 -15 72 -52 105 -82 34 -30 96 -81 139 -112 43
-32 112 -87 154 -123 42 -36 111 -95 155 -131 43 -35 210 -195 370 -355 286
-286 459 -474 577 -629 33 -43 79 -100 103 -127 24 -27 66 -82 93 -123 28 -41
73 -100 100 -131 27 -31 69 -89 92 -128 23 -40 70 -110 104 -157 34 -47 77
-112 95 -145 18 -33 68 -114 110 -180 42 -66 91 -154 110 -195 41 -93 75 -154
112 -202 16 -20 55 -102 86 -180 31 -79 76 -175 99 -213 23 -39 72 -132 109
-207 47 -94 74 -139 89 -143 11 -3 738 -9 1616 -12 l1596 -6 25 34 c25 33 81
130 179 314 26 50 66 138 89 198 24 63 67 145 102 200 34 50 80 137 102 192
23 55 71 143 107 195 36 52 85 132 109 177 24 46 62 105 85 133 23 28 63 88
90 133 26 45 78 120 115 167 36 47 86 114 110 150 24 36 63 85 85 110 23 25
69 81 102 125 72 94 262 313 414 476 127 136 468 458 588 556 47 37 114 95
150 128 36 34 93 79 126 102 33 22 88 66 122 96 35 31 91 75 125 98 35 24 98
69 140 101 42 32 120 85 172 117 52 33 123 81 158 108 35 26 97 66 138 87 41
22 109 63 150 91 41 29 120 76 175 105 55 29 141 79 190 110 51 33 143 78 213
105 77 29 144 63 180 90 73 54 96 65 217 105 55 18 156 60 225 95 69 34 189
83 267 108 78 26 188 66 245 91 115 48 234 88 413 136 66 18 169 50 230 72
126 44 187 59 520 123 132 26 278 58 325 72 222 64 374 87 795 118 731 53
1307 67 1744 41 151 -9 277 -14 280 -10 3 3 7 169 9 369 l3 363 -448 7 c-451
8 -862 3 -1210 -15 -401 -20 -580 -42 -863 -105 -153 -33 -247 -49 -490 -80
-187 -24 -271 -42 -420 -90 -177 -57 -182 -58 -415 -109 -196 -43 -239 -57
-419 -131 -49 -20 -152 -54 -230 -75 -177 -49 -203 -58 -304 -109 -45 -23
-155 -66 -245 -96 -89 -30 -184 -69 -212 -87 -92 -58 -129 -76 -235 -113 -119
-42 -147 -56 -208 -97 -49 -34 -158 -89 -235 -119 -28 -11 -101 -53 -162 -94
-60 -40 -148 -89 -195 -109 -47 -20 -103 -50 -125 -66 -22 -16 -74 -50 -115
-76 -41 -25 -112 -72 -158 -103 -45 -31 -135 -88 -200 -128 -64 -40 -137 -90
-162 -111 -25 -21 -79 -63 -120 -92 -41 -30 -118 -89 -170 -131 -52 -42 -132
-105 -177 -140 -147 -114 -330 -267 -336 -282 -3 -8 -34 -35 -68 -61 -113 -85
-654 -631 -739 -746 -22 -30 -60 -75 -84 -100 -77 -80 -419 -526 -536 -699
-36 -54 -79 -115 -96 -136 -17 -22 -65 -99 -107 -172 -41 -72 -93 -155 -115
-185 -22 -29 -63 -100 -90 -158 -27 -58 -74 -147 -105 -198 -30 -51 -74 -138
-98 -193 -54 -127 -100 -181 -192 -225 -87 -42 -163 -49 -370 -35 -170 11
-201 20 -240 73 -50 67 -30 254 55 518 33 102 82 271 109 375 37 142 63 219
104 305 30 63 73 168 95 234 23 65 74 184 114 265 41 80 86 178 100 217 15 39
62 131 106 205 44 74 85 150 91 169 7 19 39 76 72 125 33 50 89 139 123 198
35 59 85 136 112 170 27 34 69 94 94 132 24 39 64 92 87 119 24 27 65 83 92
123 53 80 297 379 349 428 18 17 52 56 77 88 60 77 489 507 633 633 112 99
148 130 287 246 130 109 289 231 378 291 50 33 107 75 128 94 21 18 70 54 110
80 40 25 110 74 157 108 47 35 126 85 175 113 50 27 119 70 155 94 36 25 112
69 170 98 58 29 123 65 145 80 69 48 138 85 200 110 84 33 192 87 242 121 48
33 94 54 208 93 44 16 136 56 205 90 69 35 195 87 280 115 85 29 189 69 230
88 104 49 190 77 370 124 85 22 202 59 260 81 143 55 200 69 460 117 224 42
303 60 454 107 147 46 314 65 1041 121 332 25 402 28 890 27 474 0 571 -3 915
-28 212 -15 448 -33 525 -41 77 -7 175 -16 218 -20 l77 -6 0 356 0 355 -27 0
c-16 0 -98 11 -183 25 -369 59 -750 79 -1495 78 -887 -1 -1356 -30 -1645 -103
-115 -28 -260 -55 -550 -100 -293 -46 -371 -63 -510 -114 -106 -38 -168 -54
-350 -91 -163 -33 -208 -46 -370 -110 -74 -29 -204 -73 -287 -99 -84 -25 -210
-72 -280 -105 -71 -32 -182 -78 -248 -101 -66 -23 -176 -70 -245 -105 -69 -34
-161 -76 -205 -94 -44 -17 -116 -52 -160 -77 -44 -24 -148 -78 -232 -119 -84
-40 -176 -92 -205 -113 -29 -22 -100 -63 -158 -92 -58 -28 -121 -64 -140 -79
-65 -51 -130 -92 -198 -126 -37 -18 -113 -66 -170 -106 -56 -41 -135 -96 -175
-122 -39 -27 -109 -76 -154 -110 -45 -34 -110 -82 -145 -107 -34 -25 -85 -65
-112 -89 -27 -24 -74 -59 -105 -79 -31 -20 -85 -63 -122 -96 -36 -34 -102 -91
-146 -128 -179 -149 -775 -735 -868 -853 -22 -27 -67 -79 -100 -115 -34 -36
-80 -91 -103 -122 -23 -32 -68 -86 -98 -120 -31 -35 -75 -90 -97 -123 -22 -33
-62 -88 -89 -123 -27 -35 -81 -111 -119 -168 -39 -58 -85 -122 -103 -142 -18
-20 -60 -84 -93 -143 -33 -58 -83 -136 -112 -175 -29 -38 -75 -116 -102 -173
-27 -57 -69 -131 -91 -165 -23 -33 -72 -126 -109 -206 -36 -80 -84 -173 -106
-207 -23 -35 -53 -98 -69 -140 -53 -151 -83 -220 -173 -404 -50 -102 -106
-203 -125 -224 -33 -39 -33 -39 -59 -22 -44 28 -77 81 -121 195 -24 61 -64
150 -90 198 -26 49 -67 144 -92 213 -49 135 -74 189 -109 236 -30 40 -75 132
-110 224 -15 41 -51 108 -80 150 -28 42 -71 112 -95 156 -61 113 -110 196
-134 226 -12 14 -46 69 -76 123 -30 53 -72 118 -94 144 -21 26 -74 99 -116
163 -43 64 -96 137 -119 163 -22 25 -60 77 -84 114 -25 37 -70 96 -102 132
-31 36 -81 97 -110 135 -74 98 -350 388 -626 659 -341 334 -398 388 -461 434
-32 24 -86 69 -120 100 -35 32 -83 72 -108 89 -25 17 -71 54 -103 82 -32 28
-86 70 -120 93 -34 22 -111 78 -172 123 -60 44 -135 96 -165 115 -30 19 -89
60 -131 92 -41 32 -116 80 -166 107 -50 27 -122 72 -160 99 -37 27 -120 75
-183 107 -63 32 -133 73 -155 91 -23 18 -106 64 -186 102 -79 38 -175 89 -214
114 -38 25 -115 62 -170 83 -55 21 -158 67 -230 103 -71 36 -202 89 -290 119
-88 30 -180 67 -205 83 -62 40 -90 51 -282 109 -91 28 -222 73 -290 100 -110
44 -188 66 -505 140 -50 12 -152 42 -226 66 -175 58 -270 77 -651 131 -98 14
-215 36 -486 94 -328 69 -1372 108 -2134 79z"/>
</g>
</svg>
